<?xml version="1.0" encoding="utf-8"?>
<!-- Generator: Adobe Illustrator 28.0.0, SVG Export Plug-In . SVG Version: 6.00 Build 0)  -->
<svg version="1.1" id="Layer_1" xmlns="http://www.w3.org/2000/svg" xmlns:xlink="http://www.w3.org/1999/xlink" x="0px" y="0px"
	 viewBox="0 0 50 50" style="enable-background:new 0 0 50 50;" xml:space="preserve">
<style type="text/css">
	.st0{fill:none;}
	.st1{fill:#FF2D20;}
	.st2{fill:#FFFFFF;}
	.st3{fill:#8B13FD;}
	.st4{fill:#777BB3;}
	.st5{fill:#010101;}
	.st6{fill:#39BCF6;}
	.st7{fill:#B7B9D0;}
	.st8{fill:#659AD0;}
	.st9{fill:#034481;}
	.st10{fill:#05599A;}
	.st11{fill:#617BB1;}
	.st12{fill:#647EB3;}
	.st13{fill:#6798CD;}
	.st14{fill:#194780;}
	.st15{fill:#2D3038;}
	.st16{fill:#FF7162;}
	.st17{fill:#F24D1F;}
	.st18{fill:#01CE84;}
	.st19{fill:#1EBDFD;}
	.st20{fill:#A359FD;}
</style>
<g>
	<path class="st8" d="M50,10.45L0,39.42l0-34.4c0-2.76,2.24-5,5-5l40-0.01c2.76,0,5,2.24,5,5L50,10.45z"/>
	<g>
		<path class="st9" d="M45.01,0c0,0-0.01,0-0.01,0H5C4.96,0,4.92,0.01,4.88,0.01L45.01,0z"/>
		<path class="st9" d="M0,39.41V45c0,2.76,2.24,5,5,5h40c2.76,0,5-2.24,5-5l0-5.39L24.84,24.8"/>
	</g>
	<polygon class="st10" points="24.84,25.03 50,39.61 50,10.45 	"/>
	<path class="st11" d="M47.06,14.28c-0.03-0.05-0.04-0.1,0-0.15C47.06,14.18,47.06,14.23,47.06,14.28z"/>
	<path class="st12" d="M47.06,35.91c-0.05-0.05-0.03-0.1,0-0.15C47.06,35.82,47.06,35.86,47.06,35.91z"/>
	<path class="st13" d="M18.45,28.74c-0.49-0.84-0.82-1.74-0.94-2.7c-0.27-2.11,0.24-4.01,1.58-5.67c1.15-1.43,2.64-2.32,4.45-2.64
		c1.89-0.33,3.66,0.02,5.28,1.04c0.99,0.62,1.78,1.44,2.39,2.44c0.02,0.03,0.04,0.07,0.08,0.09c-0.77,0.45-1.54,0.89-2.31,1.34
		c-1.18,0.68-2.37,1.37-3.55,2.05c-0.19,0.11-0.38,0.23-0.58,0.34c-0.13,0.13-0.29,0.19-0.44,0.28c-0.85,0.49-1.69,0.98-2.54,1.47
		c-0.94,0.54-1.89,1.09-2.83,1.63C18.83,28.53,18.64,28.64,18.45,28.74z"/>
	<path class="st14" d="M18.45,28.74c0.01-0.05,0.05-0.06,0.09-0.08c1.67-0.97,3.35-1.93,5.02-2.9c0.41-0.24,0.81-0.47,1.22-0.7
		c0.02-0.01,0.04-0.02,0.07-0.03c0.39,0.22,0.77,0.44,1.16,0.66c0.55,0.32,1.1,0.63,1.65,0.95c0.55,0.32,1.09,0.63,1.64,0.95
		c0.51,0.29,1.02,0.58,1.53,0.88c0.14,0.08,0.3,0.14,0.42,0.27c-0.36,0.64-0.81,1.19-1.35,1.69c-1.04,0.96-2.26,1.6-3.66,1.85
		c-2.15,0.39-4.11-0.07-5.87-1.38C19.57,30.32,18.94,29.59,18.45,28.74z"/>
	<g>
		<path class="st2" d="M37.66,32.45c-0.29,0.48-0.59,0.95-0.93,1.4c-2.1,2.77-4.84,4.62-8.2,5.51c-1.46,0.39-2.95,0.54-4.45,0.45
			c-3.07-0.17-5.83-1.19-8.27-3.06c-1.52-1.16-2.76-2.57-3.73-4.22c-0.02-0.03-0.05-0.06-0.07-0.1c-0.14-0.28-0.29-0.55-0.43-0.83
			c-0.66-1.32-1.1-2.71-1.35-4.16c-0.17-1.04-0.23-2.09-0.18-3.14c0.09-1.81,0.49-3.55,1.22-5.21c0.6-1.38,1.4-2.64,2.39-3.77
			c1.23-1.41,2.67-2.56,4.33-3.43c1.11-0.58,2.28-1.02,3.5-1.3c0.71-0.17,1.43-0.27,2.16-0.33c0.6-0.05,1.2-0.06,1.8-0.04
			c1.91,0.08,3.74,0.52,5.48,1.31c1.38,0.62,2.64,1.44,3.77,2.44c1.17,1.04,2.16,2.25,2.95,3.61c0.01,0.01,0.01,0.03,0.02,0.05
			c-2.13,1.23-4.26,2.46-6.38,3.69c-0.07,0.01-0.09-0.05-0.12-0.1c-0.31-0.5-0.67-0.97-1.09-1.39c-0.46-0.45-0.96-0.85-1.52-1.17
			c-0.85-0.49-1.75-0.81-2.71-0.93c-1.01-0.13-2-0.07-2.98,0.2c-0.93,0.26-1.77,0.68-2.53,1.28c-0.81,0.64-1.48,1.41-1.97,2.33
			c-0.45,0.83-0.73,1.72-0.84,2.66c-0.15,1.3,0.04,2.56,0.56,3.76c0.12,0.27,0.25,0.53,0.4,0.78c0.35,0.6,0.77,1.14,1.28,1.62
			c0.9,0.85,1.94,1.45,3.14,1.78c0.51,0.14,1.04,0.22,1.57,0.25c1.34,0.08,2.59-0.21,3.77-0.81c0.55-0.28,1.05-0.64,1.52-1.05
			c0.55-0.49,1.01-1.06,1.4-1.68c0.02-0.03,0.04-0.07,0.08-0.09c0.05-0.04,0.08,0,0.12,0.02c1.12,0.65,2.24,1.29,3.36,1.94
			c0.95,0.55,1.9,1.1,2.85,1.65C37.59,32.38,37.65,32.39,37.66,32.45z"/>
		<path class="st2" d="M36.36,23.37c0-0.24,0-0.48,0-0.72c0-0.07,0.01-0.1,0.09-0.1c0.49,0,0.98,0,1.47,0c0.08,0,0.09,0.03,0.09,0.1
			c0,0.48,0,0.95,0,1.43c0,0.1,0.03,0.12,0.12,0.12c0.47,0,0.93,0,1.4,0c0.09,0,0.13,0.02,0.12,0.12c-0.01,0.47,0,0.94,0,1.41
			c0,0.09-0.02,0.12-0.12,0.12c-0.47-0.01-0.94,0-1.41,0c-0.09,0-0.12,0.02-0.11,0.11c0.01,0.48,0,0.95,0,1.43
			c0,0.08-0.02,0.11-0.11,0.11c-0.48,0-0.96,0-1.44,0c-0.08,0-0.11-0.02-0.11-0.11c0-0.48,0-0.95,0-1.43c0-0.09-0.02-0.11-0.11-0.11
			c-0.47,0-0.94,0-1.41,0c-0.08,0-0.12-0.01-0.12-0.11c0.01-0.48,0-0.96,0-1.44c0-0.09,0.03-0.11,0.11-0.11c0.48,0,0.95,0,1.43,0
			c0.08,0,0.11-0.02,0.11-0.11C36.35,23.84,36.36,23.6,36.36,23.37z"/>
		<path class="st2" d="M42.53,23.36c0-0.24,0-0.48,0-0.72c0-0.07,0.02-0.1,0.09-0.1c0.49,0,0.98,0,1.46,0c0.09,0,0.1,0.03,0.1,0.11
			c0,0.48,0,0.95,0,1.43c0,0.09,0.02,0.12,0.11,0.11c0.47-0.01,0.94,0,1.41,0c0.08,0,0.12,0.01,0.12,0.11c-0.01,0.48,0,0.96,0,1.44
			c0,0.09-0.03,0.11-0.11,0.11c-0.47,0-0.94,0-1.41,0c-0.11,0-0.12,0.03-0.12,0.13c0.01,0.47,0,0.93,0,1.4
			c0,0.1-0.03,0.12-0.12,0.12c-0.47,0-0.93-0.01-1.4,0c-0.11,0-0.13-0.04-0.13-0.14c0.01-0.46,0-0.93,0-1.39
			c0-0.09-0.02-0.12-0.12-0.12c-0.47,0.01-0.94,0-1.41,0c-0.09,0-0.11-0.02-0.11-0.11c0-0.48,0-0.95,0-1.43
			c0-0.09,0.02-0.12,0.11-0.12c0.47,0.01,0.94,0,1.41,0c0.1,0,0.12-0.03,0.12-0.12C42.52,23.83,42.53,23.6,42.53,23.36z"/>
	</g>
</g>
</svg>
