<?xml version="1.0" encoding="utf-8"?>
<!-- Generator: Adobe Illustrator 28.0.0, SVG Export Plug-In . SVG Version: 6.00 Build 0)  -->
<svg version="1.1" id="Layer_1" xmlns="http://www.w3.org/2000/svg" xmlns:xlink="http://www.w3.org/1999/xlink" x="0px" y="0px"
	 viewBox="0 0 50 50" style="enable-background:new 0 0 50 50;" xml:space="preserve">
<style type="text/css">
	.st0{fill:none;}
	.st1{fill:#FF2D20;}
	.st2{fill:#FFFFFF;}
	.st3{fill:#8B13FD;}
	.st4{fill:#777BB3;}
	.st5{fill:#010101;}
	.st6{fill:#39BCF6;}
	.st7{fill:#B7B9D0;}
	.st8{fill:#659AD0;}
	.st9{fill:#034481;}
	.st10{fill:#05599A;}
	.st11{fill:#617BB1;}
	.st12{fill:#647EB3;}
	.st13{fill:#6798CD;}
	.st14{fill:#194780;}
	.st15{fill:#2D3038;}
	.st16{fill:#FF7162;}
	.st17{fill:#F24D1F;}
	.st18{fill:#01CE84;}
	.st19{fill:#1EBDFD;}
	.st20{fill:#A359FD;}
</style>
<g>
	<path class="st15" d="M45,50H5c-2.76,0-5-2.24-5-5V5c0-2.76,2.24-5,5-5h40c2.76,0,5,2.24,5,5v40C50,47.76,47.76,50,45,50z"/>
	<path class="st16" d="M35.94,10.43c0,0.04,0,0.09,0.05,0.11c0.11,0.1,0.19,0.23,0.21,0.38c0.01,0.02,0.01,0.03,0.02,0.05
		c0.08,0.11,0.14,0.24,0.15,0.38c0.2,0.67,0.34,1.35,0.33,2.06c-0.01,2.81-2.18,5.31-4.96,5.7c-0.14,0.02-0.29-0.02-0.42,0.07
		c-0.28,0.14-0.59,0.05-0.88,0.08c-0.1-0.01-0.2,0-0.31,0c-1.54,0.02-3.07,0.01-4.61,0.01c-0.15,0-0.31,0.02-0.45-0.04
		c-0.03-0.02-0.06-0.04-0.08-0.07c-0.06-0.13-0.05-0.26-0.05-0.4c0-3.6,0-7.19,0-10.79c0-0.15-0.03-0.31,0.09-0.44
		c2.05,0,4.1-0.06,6.15,0.01c1.94,0.07,3.45,1.01,4.55,2.61C35.81,10.24,35.87,10.34,35.94,10.43z"/>
	<path class="st17" d="M25.04,7.52c0,3.88,0,7.77,0,11.65c-0.08,0.09-0.19,0.09-0.3,0.09c-1.93,0-3.86,0.01-5.79,0
		c-0.04,0-0.09-0.01-0.13-0.01c-0.51-0.09-1.03-0.13-1.52-0.32c-2.26-0.88-3.6-2.5-3.93-4.9c-0.22-1.59,0.24-3.03,1.19-4.3
		c0.18-0.24,0.34-0.54,0.66-0.64c0.68-0.58,1.42-1.05,2.29-1.31c0.48-0.14,0.97-0.25,1.48-0.25C20.99,7.52,23.01,7.52,25.04,7.52z"
		/>
	<path class="st18" d="M25.04,35.69c0,0.29,0,0.58,0,0.87c-0.01,0.87-0.17,1.71-0.53,2.51c-0.45,0.99-1.12,1.78-2,2.4
		c-1.09,0.76-2.32,1.11-3.64,1.01c-2.04-0.15-3.62-1.11-4.68-2.87c-0.61-1.01-0.85-2.12-0.8-3.3c0.04-0.79,0.26-1.54,0.6-2.25
		c0.02-0.04,0.03-0.08,0.05-0.12c0.08-0.06,0.11-0.15,0.15-0.23c0.09-0.36,0.32-0.63,0.6-0.86c0.45-0.43,0.9-0.87,1.44-1.19
		c0.68-0.4,1.4-0.64,2.17-0.76c0.07-0.01,0.14-0.03,0.21-0.05c0.08-0.08,0.2-0.08,0.3-0.09c1.91-0.01,3.83,0,5.74,0
		c0.13,0,0.27-0.02,0.38,0.09c0,1.27,0.01,2.53,0.01,3.8c0,0.32,0.01,0.64,0.01,0.95C25.07,35.62,25.06,35.66,25.04,35.69z"/>
	<path class="st19" d="M33.77,30.08c-1.02,0.54-2.11,0.82-3.28,0.75c-2.79-0.17-5.1-2.36-5.42-5.11c-0.07-0.09-0.07-0.2-0.1-0.3
		c-0.03-0.26-0.03-0.53,0-0.79c0.03-0.1,0.05-0.2,0.04-0.3c0.09-1.19,0.57-2.22,1.33-3.12c0.68-0.8,1.51-1.4,2.51-1.75
		c0.42-0.15,0.84-0.25,1.29-0.24c0.09-0.01,0.19,0.02,0.28-0.02c0.3,0,0.59,0,0.89,0c1.16,0.11,2.2,0.52,3.13,1.22
		c2.09,1.59,2.84,4.58,1.75,6.96c-0.52,1.13-1.3,2.02-2.37,2.66C33.81,30.04,33.79,30.06,33.77,30.08z"/>
	<path class="st20" d="M25.04,24.57c0,0.29,0,0.58,0,0.87c0.03,0.09,0.03,0.18,0,0.27c0,1.53-0.01,3.06-0.01,4.59
		c0,0.18-0.01,0.36-0.01,0.54c-2.05,0-4.1-0.01-6.15-0.01c-0.09-0.05-0.19,0.01-0.27-0.04c-1.1-0.06-2.07-0.47-2.93-1.14
		c-0.88-0.68-1.56-1.53-1.93-2.59c-0.04-0.13-0.15-0.23-0.16-0.38c-0.04-0.05-0.01-0.12-0.04-0.17c-0.05-0.12-0.06-0.24-0.07-0.37
		c-0.03-0.03-0.04-0.07-0.04-0.11c-0.01-0.15-0.1-0.28-0.07-0.43c-0.03-0.11-0.03-0.21,0-0.32c0-0.18,0-0.36,0-0.54
		c-0.04-0.05-0.03-0.11,0-0.16c-0.04-0.28,0.09-0.54,0.11-0.81c0.02-0.15,0.06-0.29,0.11-0.43c0.06-0.16,0.12-0.32,0.18-0.49
		c-0.02-0.14,0.1-0.22,0.15-0.33c0.04-0.09,0.08-0.18,0.12-0.27c0.03-0.09,0.08-0.15,0.14-0.22c0.11-0.18,0.23-0.36,0.34-0.54
		c0-0.06,0.06-0.08,0.09-0.11c0.14-0.14,0.21-0.33,0.39-0.44c0.06-0.08,0.13-0.15,0.21-0.21c0.26-0.28,0.55-0.51,0.88-0.7
		c0.06-0.07,0.14-0.09,0.22-0.11c0.11-0.06,0.21-0.12,0.32-0.17c0.04-0.05,0.09-0.11,0.17-0.09c0.25-0.1,0.5-0.19,0.75-0.29
		c0.4-0.07,0.79-0.15,1.19-0.22c2.1,0,4.21,0.01,6.31,0.01c0,0,0,0.01,0,0.01c0.1,0.1,0.09,0.23,0.09,0.35c0,1.29,0,2.58,0,3.87
		c0,0.29-0.07,0.57-0.06,0.86C25.05,24.37,25.08,24.47,25.04,24.57z"/>
</g>
</svg>
