<?xml version="1.0" encoding="utf-8"?>
<!-- Generator: Adobe Illustrator 28.0.0, SVG Export Plug-In . SVG Version: 6.00 Build 0)  -->
<svg version="1.1" id="Layer_1" xmlns="http://www.w3.org/2000/svg" xmlns:xlink="http://www.w3.org/1999/xlink" x="0px" y="0px"
	 viewBox="0 0 50 50" style="enable-background:new 0 0 50 50;" xml:space="preserve">
<style type="text/css">
	.st0{fill:none;}
	.st1{fill:#FF2D20;}
	.st2{fill:#FFFFFF;}
	.st3{fill:#8B13FD;}
	.st4{fill:#777BB3;}
	.st5{fill:#010101;}
	.st6{fill:#39BCF6;}
	.st7{fill:#B7B9D0;}
	.st8{fill:#659AD0;}
	.st9{fill:#034481;}
	.st10{fill:#05599A;}
	.st11{fill:#617BB1;}
	.st12{fill:#647EB3;}
	.st13{fill:#6798CD;}
	.st14{fill:#194780;}
	.st15{fill:#2D3038;}
	.st16{fill:#FF7162;}
	.st17{fill:#F24D1F;}
	.st18{fill:#01CE84;}
	.st19{fill:#1EBDFD;}
	.st20{fill:#A359FD;}
</style>
<g>
	<path class="st1" d="M45,50H5c-2.76,0-5-2.24-5-5V5c0-2.76,2.24-5,5-5h40c2.76,0,5,2.24,5,5v40C50,47.76,47.76,50,45,50z"/>
	<path class="st2" d="M42.5,15.35c0-0.27-0.11-0.46-0.34-0.59c-0.46-0.26-0.92-0.53-1.39-0.8c-1.77-1.02-3.53-2.03-5.29-3.05
		c-0.21-0.12-0.42-0.12-0.63,0c-2.22,1.28-4.44,2.56-6.66,3.83c-0.25,0.15-0.37,0.35-0.37,0.64c0,2.4,0,4.81,0,7.21
		c0,0.06-0.01,0.1-0.07,0.14c-1.83,1.05-3.66,2.11-5.49,3.16c-0.02,0.01-0.05,0.04-0.08,0.04c0-0.04,0-0.07,0-0.11
		c0-4.77,0-9.54,0-14.31c0-0.26-0.11-0.45-0.33-0.58c-2.22-1.28-4.45-2.56-6.67-3.84c-0.22-0.13-0.43-0.14-0.66-0.01
		c-2.18,1.26-4.36,2.51-6.54,3.77c-0.21,0.12-0.4,0.24-0.48,0.49c0,7.81,0,15.62,0,23.43c0.07,0.21,0.22,0.34,0.41,0.45
		c4.45,2.56,8.89,5.12,13.34,7.68c0.25,0.14,0.47,0.15,0.72,0c0.97-0.56,1.94-1.12,2.92-1.68c3.49-2.01,6.99-4.02,10.48-6.03
		c0.24-0.14,0.36-0.33,0.36-0.61c0-2.41,0-4.83,0-7.24c0-0.07,0.02-0.1,0.08-0.14c2.12-1.22,4.23-2.44,6.35-3.65
		c0.24-0.14,0.35-0.32,0.35-0.6C42.5,20.42,42.5,17.89,42.5,15.35z M21.05,12.43c0,0.05,0,0.08,0,0.11c0,4.65,0,9.3,0,13.94
		c0,0.08-0.02,0.12-0.09,0.16c-1.82,1.05-3.64,2.09-5.46,3.14c-0.1,0.06-0.1,0.06-0.1-0.06c0-4.65,0-9.3,0-13.95
		c0-0.08,0.03-0.11,0.09-0.15c1.82-1.05,3.64-2.1,5.47-3.15C20.98,12.47,21.01,12.45,21.05,12.43z M10.44,10.74
		c1.44-0.83,2.89-1.66,4.33-2.49c0.06-0.03,0.1-0.03,0.15,0c1.83,1.05,3.65,2.11,5.48,3.16c0.03,0.01,0.05,0.03,0.08,0.05
		c-0.39,0.22-0.77,0.44-1.14,0.66c-1.48,0.85-2.95,1.7-4.43,2.55c-0.04,0.02-0.08,0.04-0.13,0.01c-1.84-1.06-3.68-2.12-5.52-3.18
		c-0.02-0.01-0.04-0.02-0.06-0.04C9.62,11.21,10.03,10.97,10.44,10.74z M21.05,41.39c0,0.02,0,0.05,0,0.08
		c-0.15-0.09-0.29-0.17-0.44-0.25c-3.97-2.29-7.95-4.58-11.92-6.86c-0.06-0.03-0.06-0.07-0.06-0.13c0-3.42,0-6.83,0-10.25
		c0-3.81,0-7.62,0-11.44c0-0.04,0-0.07,0-0.12c0.27,0.16,0.53,0.3,0.79,0.45c1.59,0.91,3.17,1.83,4.76,2.74
		c0.07,0.04,0.1,0.08,0.1,0.17c0,4.98,0,9.95,0,14.93c0,0.3,0.12,0.5,0.38,0.65c2.11,1.19,4.22,2.39,6.33,3.58
		c0.05,0.03,0.07,0.06,0.07,0.12C21.05,37.17,21.05,39.28,21.05,41.39z M21.7,33.96c-0.06,0.04-0.11,0.04-0.17,0
		c-1.82-1.03-3.64-2.06-5.46-3.09c-0.03-0.01-0.05-0.03-0.08-0.05c0.17-0.1,0.33-0.19,0.49-0.28c3.95-2.27,7.9-4.55,11.84-6.82
		c0.05-0.03,0.08-0.04,0.14-0.01c1.83,1.06,3.67,2.11,5.5,3.17c0.02,0.01,0.04,0.03,0.07,0.04c-0.03,0.02-0.06,0.04-0.09,0.05
		C29.86,29.3,25.78,31.63,21.7,33.96z M34.52,34.38c-4.08,2.35-8.16,4.7-12.24,7.04c-0.03,0.02-0.06,0.03-0.09,0.05
		c-0.03-0.02-0.01-0.05-0.01-0.07c0-2.11,0-4.23,0-6.34c0-0.07,0.04-0.1,0.09-0.12c1.7-0.97,3.4-1.94,5.1-2.91
		c2.38-1.36,4.76-2.72,7.14-4.07c0.03-0.02,0.06-0.03,0.09-0.05c0,0.04,0,0.07,0,0.1c0,2.08,0,4.16,0,6.24
		C34.6,34.3,34.58,34.34,34.52,34.38z M34.6,25.89c0,0.01,0,0.02,0,0.06c-0.22-0.12-0.42-0.24-0.62-0.36
		c-1.65-0.95-3.3-1.9-4.95-2.85c-0.06-0.03-0.08-0.07-0.08-0.14c0-2.08,0-4.16,0-6.24c0-0.1,0-0.1,0.09-0.05
		c1.83,1.05,3.65,2.1,5.48,3.15c0.05,0.03,0.08,0.06,0.08,0.12C34.6,21.69,34.6,23.79,34.6,25.89z M35.25,18.49
		c-0.06,0.04-0.11,0.04-0.17,0c-1.82-1.05-3.64-2.1-5.46-3.14c-0.03-0.02-0.06-0.04-0.1-0.06c0.39-0.22,0.77-0.44,1.15-0.66
		c1.48-0.85,2.95-1.7,4.43-2.55c0.05-0.03,0.09-0.03,0.14,0c1.84,1.06,3.67,2.12,5.51,3.17c0.02,0.01,0.04,0.02,0.06,0.04
		c-0.38,0.22-0.75,0.43-1.12,0.64C38.21,16.78,36.73,17.63,35.25,18.49z M41.28,22.75c-1.82,1.05-3.64,2.1-5.47,3.14
		c-0.02,0.01-0.05,0.03-0.08,0.05c0-0.05,0-0.08,0-0.11c0-2.07,0-4.13,0-6.2c0-0.09,0.03-0.13,0.11-0.18
		c1.82-1.04,3.63-2.09,5.45-3.14c0.02-0.01,0.05-0.04,0.08-0.04c0.02,0.03,0.01,0.07,0.01,0.1c0,2.07,0,4.13,0,6.2
		C41.37,22.67,41.35,22.71,41.28,22.75z"/>
</g>
</svg>
