<?xml version="1.0" encoding="utf-8"?>
<!-- Generator: Adobe Illustrator 28.0.0, SVG Export Plug-In . SVG Version: 6.00 Build 0)  -->
<svg version="1.1" id="Layer_1" xmlns="http://www.w3.org/2000/svg" xmlns:xlink="http://www.w3.org/1999/xlink" x="0px" y="0px"
	 viewBox="0 0 50 50" style="enable-background:new 0 0 50 50;" xml:space="preserve">
<style type="text/css">
	.st0{fill:none;}
	.st1{fill:#FF2D20;}
	.st2{fill:#FFFFFF;}
	.st3{fill:#8B13FD;}
	.st4{fill:#777BB3;}
	.st5{fill:#010101;}
	.st6{fill:#39BCF6;}
	.st7{fill:#B7B9D0;}
	.st8{fill:#659AD0;}
	.st9{fill:#034481;}
	.st10{fill:#05599A;}
	.st11{fill:#617BB1;}
	.st12{fill:#647EB3;}
	.st13{fill:#6798CD;}
	.st14{fill:#194780;}
	.st15{fill:#2D3038;}
	.st16{fill:#FF7162;}
	.st17{fill:#F24D1F;}
	.st18{fill:#01CE84;}
	.st19{fill:#1EBDFD;}
	.st20{fill:#A359FD;}
</style>
<g>
	<path class="st4" d="M45,50H5c-2.76,0-5-2.24-5-5V5c0-2.76,2.24-5,5-5h40c2.76,0,5,2.24,5,5v40C50,47.76,47.76,50,45,50z"/>
	<g>
		<path class="st2" d="M42.48,23.35c-0.08-1.25-0.71-2.24-1.8-2.89c-0.79-0.47-1.67-0.68-2.58-0.69c-1.88-0.03-3.75-0.01-5.63-0.01
			c-0.49,0-0.64,0.13-0.73,0.61c-0.12,0.63-0.24,1.25-0.37,1.92c-0.04-0.07-0.06-0.1-0.07-0.13c-0.25-1.32-1.14-1.94-2.38-2.22
			c-1.14-0.25-2.29-0.18-3.43-0.18c-0.31,0-0.34-0.1-0.28-0.36c0.16-0.76,0.3-1.51,0.45-2.27c0.1-0.52-0.09-0.8-0.63-0.81
			c-0.84-0.01-1.69-0.01-2.53,0c-0.33,0-0.56,0.14-0.63,0.49c-0.06,0.31-0.13,0.62-0.19,0.93c-0.33,1.71-0.66,3.42-1.01,5.2
			c-0.51-1.44-0.89-1.98-1.87-2.54c-0.77-0.44-1.62-0.63-2.49-0.64c-1.84-0.02-3.68-0.01-5.52-0.01c-0.62,0-0.74,0.1-0.86,0.72
			c-0.24,1.28-0.49,2.55-0.74,3.82c-0.56,2.87-1.11,5.74-1.67,8.61c-0.09,0.48,0.12,0.74,0.61,0.75c0.84,0.01,1.69,0.01,2.53,0
			c0.4,0,0.6-0.17,0.68-0.57c0.18-0.86,0.35-1.72,0.51-2.58c0.04-0.22,0.13-0.28,0.34-0.28c0.96,0,1.92,0.03,2.88-0.05
			c1.82-0.15,3.28-0.94,4.39-2.4c0.08-0.11,0.14-0.26,0.33-0.34c-0.14,0.72-0.27,1.4-0.4,2.07c-0.08,0.44,0.12,0.72,0.56,0.72
			c0.87,0.01,1.74,0.01,2.6,0c0.39,0,0.58-0.17,0.65-0.55c0.37-1.92,0.75-3.83,1.12-5.75c0.06-0.33,0.01-0.76,0.24-0.96
			c0.24-0.2,0.65-0.06,0.99-0.06c0.43-0.01,0.87-0.01,1.3,0.02c0.42,0.03,0.53,0.15,0.49,0.55c-0.03,0.35-0.1,0.69-0.17,1.04
			c-0.32,1.67-0.64,3.33-0.96,5c-0.09,0.46,0.12,0.71,0.57,0.72c1,0.01,2,0,3.01,0c-0.17,0.86-0.33,1.75-0.5,2.63
			c-0.1,0.52,0.1,0.79,0.64,0.8c0.83,0.01,1.67,0.01,2.5,0c0.42,0,0.61-0.18,0.69-0.59c0.17-0.85,0.33-1.7,0.49-2.55
			c0.04-0.2,0.11-0.29,0.34-0.29c0.76,0.01,1.53,0.02,2.29-0.01c1.18-0.05,2.34-0.24,3.35-0.92C41.73,27.89,42.65,25.86,42.48,23.35
			z M16.42,25.69c-0.41,1.07-1.29,1.37-2.31,1.45c-0.22,0.02-0.44,0-0.67,0c-0.3-0.02-0.71,0.15-0.86-0.06
			c-0.12-0.17,0.05-0.55,0.11-0.84c0.2-1.04,0.41-2.09,0.61-3.13c0.02-0.13,0.02-0.27,0.21-0.26c0.77,0.02,1.55-0.06,2.31,0.08
			c0.7,0.13,0.94,0.41,0.94,1.12C16.74,24.61,16.62,25.16,16.42,25.69z M37.95,26.17c-0.47,0.74-1.23,0.87-2.01,0.96
			c-0.22,0.02-0.44,0-0.67,0c-0.3-0.01-0.7,0.15-0.88-0.04c-0.18-0.2,0.04-0.57,0.09-0.86c0.19-1.02,0.4-2.04,0.58-3.07
			c0.04-0.23,0.12-0.33,0.38-0.32c0.74,0.04,1.48-0.05,2.21,0.09c0.61,0.12,0.88,0.39,0.88,1C38.55,24.72,38.38,25.49,37.95,26.17z"
			/>
		<g>
			<path class="st5" d="M26.52,20.28c0.75,0.01,1.66,0,2.55,0.25c1.29,0.35,1.87,1.2,1.72,2.6c-0.14,1.29-0.47,2.55-0.7,3.82
				c-0.15,0.82-0.31,1.63-0.47,2.44c-0.04,0.21-0.1,0.34-0.37,0.33c-0.74-0.03-1.48-0.01-2.21-0.01c-0.2,0-0.31,0.01-0.25-0.27
				c0.37-1.81,0.71-3.62,1.06-5.43c0.04-0.19,0.05-0.4,0.06-0.59c0.01-0.6-0.23-0.89-0.82-0.99c-0.94-0.15-1.89-0.04-2.84-0.07
				c-0.15-0.01-0.16,0.08-0.18,0.19c-0.28,1.44-0.56,2.89-0.84,4.33c-0.17,0.87-0.33,1.74-0.5,2.61c-0.03,0.14-0.08,0.23-0.25,0.22
				c-0.79-0.01-1.57-0.01-2.36,0c-0.18,0-0.22-0.05-0.18-0.23c0.57-2.91,1.13-5.82,1.7-8.73c0.23-1.17,0.46-2.34,0.67-3.51
				c0.05-0.28,0.12-0.41,0.45-0.4c0.69,0.03,1.38,0.03,2.07,0c0.32-0.01,0.33,0.11,0.28,0.36c-0.19,0.89-0.35,1.79-0.54,2.68
				c-0.06,0.28-0.05,0.42,0.31,0.39C25.36,20.26,25.86,20.28,26.52,20.28z"/>
			<path class="st5" d="M18.87,21.08c-0.74-0.53-1.59-0.74-2.47-0.76c-1.69-0.03-3.37-0.03-5.06-0.03c-0.85,0-0.84,0-1,0.83
				c-0.54,2.84-1.1,5.68-1.65,8.52c-0.22,1.15-0.45,2.31-0.68,3.49c0.89,0,1.76,0,2.62,0c0.15,0,0.18-0.06,0.21-0.2
				c0.18-0.95,0.37-1.9,0.55-2.85c0.05-0.25,0.12-0.38,0.41-0.37c0.74,0.03,1.48,0.02,2.21,0.01c0.89-0.02,1.78-0.07,2.62-0.41
				c2.32-0.93,3.7-3.2,3.54-5.78C20.12,22.53,19.71,21.68,18.87,21.08z M16.87,25.98c-0.47,1.11-1.4,1.53-2.52,1.66
				c-0.74,0.08-1.48,0.05-2.21,0.06c-0.2,0-0.27-0.04-0.23-0.25c0.33-1.64,0.65-3.27,0.96-4.91c0.04-0.21,0.12-0.24,0.3-0.24
				c0.32,0.01,0.63,0,0.95,0c0.62,0,1.24,0,1.85,0.12c0.91,0.18,1.35,0.71,1.32,1.65C17.27,24.73,17.12,25.37,16.87,25.98z"/>
			<path class="st5" d="M40.26,20.83c-0.65-0.36-1.36-0.5-2.09-0.51c-1.85-0.03-3.7-0.01-5.55-0.04c-0.28,0-0.35,0.11-0.39,0.35
				c-0.36,1.88-0.72,3.76-1.09,5.64c-0.43,2.21-0.86,4.42-1.29,6.63c-0.03,0.17,0,0.24,0.2,0.24c0.77-0.01,1.55-0.01,2.32,0
				c0.2,0,0.26-0.07,0.29-0.25c0.18-0.98,0.38-1.95,0.55-2.92c0.04-0.2,0.12-0.25,0.3-0.24c0.53,0.01,1.05,0,1.58,0
				c0-0.01,0-0.03,0-0.04c0.52,0,1.03,0.02,1.55,0c1.23-0.07,2.35-0.45,3.3-1.26c1.33-1.14,1.99-2.61,2.05-4.33
				C42.04,22.67,41.53,21.53,40.26,20.83z M38.66,25.96c-0.47,1.14-1.42,1.57-2.57,1.68c-0.7,0.07-1.4,0.04-2.1,0.06
				c-0.27,0.01-0.34-0.06-0.28-0.33c0.3-1.5,0.59-3,0.88-4.49c0.12-0.59,0.13-0.58,0.74-0.58c0.19,0,0.37,0,0.56,0
				c0.64,0,1.29,0,1.92,0.13c0.79,0.16,1.22,0.65,1.25,1.45C39.09,24.6,38.94,25.29,38.66,25.96z"/>
		</g>
	</g>
</g>
</svg>
