<?xml version="1.0" encoding="utf-8"?>
<!-- Generator: Adobe Illustrator 28.0.0, SVG Export Plug-In . SVG Version: 6.00 Build 0)  -->
<svg version="1.1" id="Layer_1" xmlns="http://www.w3.org/2000/svg" xmlns:xlink="http://www.w3.org/1999/xlink" x="0px" y="0px"
	 viewBox="0 0 50 50" style="enable-background:new 0 0 50 50;" xml:space="preserve">
<style type="text/css">
	.st0{fill:none;}
	.st1{fill:#FF2D20;}
	.st2{fill:#FFFFFF;}
	.st3{fill:#8B13FD;}
	.st4{fill:#777BB3;}
	.st5{fill:#010101;}
	.st6{fill:#39BCF6;}
	.st7{fill:#B7B9D0;}
	.st8{fill:#659AD0;}
	.st9{fill:#034481;}
	.st10{fill:#05599A;}
	.st11{fill:#617BB1;}
	.st12{fill:#647EB3;}
	.st13{fill:#6798CD;}
	.st14{fill:#194780;}
	.st15{fill:#2D3038;}
	.st16{fill:#FF7162;}
	.st17{fill:#F24D1F;}
	.st18{fill:#01CE84;}
	.st19{fill:#1EBDFD;}
	.st20{fill:#A359FD;}
</style>
<g>
	<path class="st2" d="M45,50H5c-2.76,0-5-2.24-5-5V5c0-2.76,2.24-5,5-5h40c2.76,0,5,2.24,5,5v40C50,47.76,47.76,50,45,50z"/>
	<g>
		<path class="st6" d="M34.69,24.97c-0.03,0-0.06,0-0.09,0c-0.04,0.01-0.08,0-0.11,0.01c-0.05,0-0.1,0-0.15,0
			C34.29,25,34.23,24.98,34.17,25c-0.28,0-0.56,0-0.84,0c-0.06-0.02-0.12,0-0.18-0.01c-0.04,0-0.09,0-0.13,0
			c-0.04-0.02-0.08,0-0.11-0.01c-0.03,0-0.06,0-0.09,0c-0.03-0.01-0.06,0-0.08-0.01c-0.03,0-0.06,0-0.09,0
			c-0.02-0.01-0.05,0-0.07-0.01c-0.02,0-0.04,0-0.07,0c-0.02-0.01-0.05,0-0.07-0.01c-0.4-0.03-0.79-0.11-1.18-0.19
			c-0.38-0.08-0.75-0.19-1.11-0.32c-0.54-0.19-1.06-0.44-1.56-0.74c-0.33-0.2-0.64-0.41-0.94-0.65c-0.21-0.16-0.41-0.33-0.6-0.5
			c-0.21-0.19-0.41-0.37-0.61-0.57c-0.21-0.2-0.43-0.41-0.63-0.62c-0.22-0.23-0.45-0.45-0.67-0.68c-0.21-0.21-0.43-0.42-0.66-0.61
			c-0.24-0.21-0.49-0.41-0.76-0.58c-0.33-0.21-0.67-0.39-1.05-0.51c-0.26-0.09-0.54-0.15-0.81-0.19c-0.09-0.01-0.18-0.02-0.27-0.04
			c-0.02-0.01-0.05,0-0.07-0.01c-0.03,0-0.05,0-0.08,0c-0.03-0.01-0.06,0-0.08-0.01c-0.04,0-0.09,0-0.13,0
			c-0.14-0.01-0.28-0.01-0.42,0c-0.04,0-0.08,0-0.12,0c-0.03,0.01-0.07,0-0.1,0.01c-0.02,0-0.04,0-0.07,0
			c-0.02,0.01-0.05,0-0.07,0.01c-0.13,0.01-0.25,0.03-0.38,0.06c-0.22,0.04-0.44,0.1-0.65,0.18c-0.49,0.17-0.94,0.41-1.36,0.71
			c-0.4,0.29-0.77,0.62-1.11,0.98c-0.24,0.25-0.45,0.51-0.66,0.79c-0.01,0.01-0.01,0.02-0.02,0.03c-0.02,0-0.02-0.01-0.02-0.02
			c0.04-0.18,0.09-0.36,0.14-0.53c0.06-0.21,0.13-0.42,0.2-0.62c0.19-0.55,0.42-1.07,0.69-1.58c0.16-0.3,0.33-0.58,0.52-0.86
			c0.01-0.02,0.02-0.03,0.04-0.05c0-0.04,0.03-0.06,0.05-0.09c0.29-0.4,0.6-0.77,0.96-1.1c0.45-0.42,0.94-0.78,1.48-1.07
			c0.61-0.34,1.27-0.58,1.94-0.75c0.46-0.12,0.94-0.2,1.41-0.25c0.26-0.03,0.53-0.04,0.79-0.04c0.07,0,0.14,0.01,0.21-0.01
			c0.17,0,0.34,0,0.51,0c0.07,0.02,0.14,0,0.21,0.01c0.05,0,0.09-0.01,0.14,0c1.03,0.04,2.04,0.2,3.02,0.55
			c0.88,0.31,1.69,0.76,2.44,1.32c0.43,0.33,0.84,0.68,1.23,1.06c0.34,0.32,0.66,0.65,0.99,0.98c0.32,0.33,0.64,0.65,0.98,0.95
			c0.53,0.47,1.09,0.87,1.76,1.12c0.32,0.12,0.64,0.19,0.98,0.24c0.3,0.05,0.61,0.07,0.91,0.07c0.83-0.02,1.61-0.24,2.34-0.65
			c0.62-0.35,1.16-0.81,1.64-1.32c0.23-0.24,0.44-0.5,0.64-0.76c0.01-0.01,0.02-0.03,0.03-0.04c0.02,0,0.02,0.01,0.02,0.03
			c-0.08,0.27-0.15,0.55-0.24,0.81c-0.2,0.61-0.43,1.2-0.72,1.77c-0.27,0.52-0.58,1.01-0.95,1.47c-0.22,0.27-0.45,0.53-0.71,0.77
			c-0.42,0.39-0.87,0.73-1.37,1.01c-0.43,0.24-0.87,0.44-1.34,0.6c-0.4,0.14-0.8,0.24-1.21,0.32c-0.25,0.05-0.5,0.09-0.75,0.12
			c-0.05,0-0.09,0.01-0.14,0.01c-0.02,0.01-0.05,0-0.07,0.01c-0.02,0-0.04,0-0.07,0c-0.02,0.01-0.05,0-0.07,0.01
			c-0.03,0-0.06,0-0.09,0C34.75,24.97,34.72,24.96,34.69,24.97z"/>
		<path class="st6" d="M13.59,29.38c-0.16-0.05-0.33-0.08-0.49-0.11c-0.31-0.05-0.62-0.08-0.93-0.07c-0.64,0.01-1.25,0.14-1.84,0.4
			c-0.57,0.25-1.09,0.59-1.56,1C8.31,31,7.9,31.46,7.53,31.94c-0.01,0.01-0.01,0.02-0.03,0.02c0.01-0.1,0.05-0.19,0.07-0.29
			c0.23-0.83,0.52-1.63,0.93-2.39c0.31-0.59,0.67-1.13,1.11-1.63c0.08-0.09,0.16-0.18,0.24-0.27c0.16-0.18,0.35-0.33,0.53-0.49
			c0.23-0.21,0.48-0.39,0.75-0.56c0.47-0.31,0.98-0.55,1.51-0.75c0.5-0.18,1.02-0.32,1.55-0.41c0.29-0.05,0.58-0.09,0.87-0.12
			c0.02-0.01,0.05,0,0.07-0.01c0.03,0,0.05,0,0.08,0c0.03-0.01,0.07,0,0.1-0.01c0.03,0,0.06,0,0.09,0c0.04-0.01,0.08,0,0.11-0.01
			c0.05,0,0.1,0,0.15,0c0.05-0.01,0.1,0.01,0.15-0.01c0.29,0,0.57,0,0.86,0c0.06,0.02,0.12,0,0.18,0.01c0.04,0,0.09,0,0.13,0
			c0.04,0.02,0.08,0,0.11,0.01c0.03,0,0.06,0,0.09,0c0.03,0.02,0.07,0,0.1,0.01c0.03,0,0.05,0,0.08,0c0.02,0.01,0.05,0,0.07,0.01
			c0.02,0,0.04,0,0.07,0c0.02,0.01,0.05,0,0.07,0.01c0.76,0.09,1.51,0.24,2.23,0.49c0.62,0.22,1.22,0.51,1.78,0.86
			c0.42,0.27,0.82,0.57,1.2,0.89c0.22,0.18,0.43,0.38,0.63,0.57c0.36,0.34,0.71,0.69,1.06,1.05c0.22,0.23,0.44,0.44,0.67,0.66
			c0.43,0.41,0.88,0.79,1.4,1.09c0.42,0.24,0.86,0.41,1.33,0.5c0.18,0.04,0.36,0.07,0.55,0.08c0.02,0.01,0.05,0,0.07,0.01
			c0.03,0,0.05,0,0.08,0c0.03,0.01,0.06,0,0.08,0.01c0.05,0,0.09,0,0.14,0c0.13,0.01,0.27,0.01,0.4,0c0.04,0,0.09,0,0.13,0
			c0.03-0.01,0.06,0,0.08-0.01c0.03,0,0.05,0,0.08,0c0.02-0.01,0.05,0,0.07-0.01c0.24-0.02,0.47-0.07,0.69-0.13
			c0.39-0.1,0.75-0.26,1.11-0.45c0.29-0.16,0.56-0.34,0.82-0.54c0.33-0.25,0.63-0.54,0.91-0.84c0.19-0.2,0.37-0.41,0.54-0.64
			c0.03-0.05,0.07-0.09,0.1-0.13c0.02,0,0.02,0.01,0.02,0.03c-0.08,0.27-0.15,0.55-0.24,0.81c-0.2,0.61-0.43,1.2-0.72,1.77
			c-0.27,0.52-0.58,1.01-0.95,1.47c-0.22,0.27-0.45,0.53-0.71,0.77c-0.42,0.39-0.87,0.73-1.37,1.01c-0.43,0.24-0.87,0.44-1.34,0.6
			c-0.4,0.14-0.8,0.24-1.21,0.32c-0.25,0.05-0.5,0.09-0.75,0.12c-0.05,0-0.09,0.01-0.14,0.01c-0.02,0.01-0.05,0-0.07,0.01
			c-0.02,0-0.04,0-0.07,0c-0.02,0.01-0.05,0-0.07,0.01c-0.03,0-0.06,0-0.09,0c-0.03,0.01-0.06,0-0.08,0.01c-0.03,0-0.06,0-0.09,0
			c-0.04,0.01-0.08,0-0.11,0.01c-0.05,0-0.1,0-0.15,0c-0.05,0.01-0.11-0.01-0.17,0.01c-0.28,0-0.56,0-0.84,0
			c-0.06-0.02-0.12,0-0.18-0.01c-0.04,0-0.09,0-0.13,0c-0.04-0.02-0.08,0-0.11-0.01c-0.03,0-0.06,0-0.09,0
			c-0.03-0.01-0.06,0-0.08-0.01c-0.03,0-0.06,0-0.09,0c-0.02-0.01-0.05,0-0.07-0.01c-0.02,0-0.04,0-0.07,0
			c-0.02-0.01-0.05,0-0.07-0.01c-0.4-0.03-0.79-0.11-1.18-0.19c-0.38-0.08-0.75-0.19-1.11-0.32c-0.54-0.19-1.06-0.44-1.56-0.74
			c-0.33-0.2-0.64-0.41-0.94-0.65c-0.21-0.16-0.41-0.33-0.6-0.5c-0.21-0.19-0.41-0.38-0.61-0.57c-0.21-0.2-0.42-0.4-0.62-0.61
			c-0.22-0.24-0.45-0.46-0.68-0.68c-0.22-0.21-0.44-0.42-0.67-0.62c-0.24-0.21-0.49-0.41-0.76-0.58c-0.3-0.19-0.61-0.36-0.95-0.48
			C13.86,29.45,13.73,29.42,13.59,29.38z"/>
	</g>
</g>
</svg>
